<svg xmlns="http://www.w3.org/2000/svg" viewBox="0 0 395.52 142.04564170928518" height="142.04564170928518" width="395.52"><g><svg viewBox="0 0 559.6758833523809 200.99999999999997" height="142.04564170928518" width="395.52"><g><rect width="5.543595906493507" height="200.99999999999997" x="214.51203116883116" y="0" fill="#152232" opacity="1" stroke-width="0" stroke="transparent" fill-opacity="1" class="rect-o-0" data-fill-palette-color="primary" rx="1%" id="o-0" data-palette-color="#152232"/></g><g transform="matrix(1,0,0,1,234.5676582441558,0.4999999999999858)"><svg viewBox="0 0 325.1082251082251 200" height="200" width="325.1082251082251"><g><svg viewBox="0 0 325.1082251082251 200" height="200" width="325.1082251082251"><g><svg viewBox="0 0 325.1082251082251 200" height="200" width="325.1082251082251"><g transform="matrix(1,0,0,1,0,0)"><svg width="325.1082251082251" viewBox="2.2500009536743164 -34.900001525878906 189.25 112.5" height="200" data-palette-color="#152232"><svg/><svg/><svg/><g class="undefined-text-0" data-fill-palette-color="primary" id="text-0"><path d="M18.95 0.6c-5.467 0-9.617-1.467-12.45-4.4-2.833-2.933-4.25-7.383-4.25-13.35v0c0-5.933 1.417-10.377 4.25-13.33 2.833-2.947 6.983-4.42 12.45-4.42v0c4.467 0 8.077 1.117 10.83 3.35 2.747 2.233 4.12 5.483 4.12 9.75v0h-5.65c0-2.7-0.833-4.777-2.5-6.23-1.667-1.447-3.917-2.17-6.75-2.17v0c-3.767 0-6.54 1.023-8.32 3.07-1.787 2.053-2.697 5.28-2.73 9.68v0 0.55c0 4.433 0.9 7.673 2.7 9.72 1.8 2.053 4.583 3.08 8.35 3.08v0c2.933 0 5.243-0.71 6.93-2.13 1.68-1.413 2.52-3.47 2.52-6.17v0h5.45c0 4.3-1.367 7.54-4.1 9.72-2.733 2.187-6.35 3.28-10.85 3.28zM40.3 0v-34.3h5.55v34.3zM62.5 0v-29.5h-11.4v-4.8h28.35v4.8h-11.4v29.5z" data-fill-palette-color="primary" fill="#152232" opacity="1"/><path d="M3.75 38.5v-34.3h5.55v14.35h17.5v-14.35h5.55v34.3h-5.55v-15.15h-17.5v15.15zM39.85 38.5v-34.3h26.6v4.75h-21.05v9.65h18.85v4.75h-18.85v10.4h21.35v4.75zM69.75 38.5l13.35-34.3h7l13.3 34.3h-5.9l-3.15-8.35h-15.8l-3.1 8.35zM80.3 25.4h12.25l-3.75-10.05-2.25-6.4h-0.25l-0.45 1.3c-0.567 1.733-1.15 3.4-1.75 5v0zM107.4 38.5v-34.3h5.55v29.5h17.85v4.8zM141.1 38.5v-29.5h-11.4v-4.8h28.35v4.8h-11.4v29.5zM162.9 38.5v-34.3h5.55v14.35h17.5v-14.35h5.55v34.3h-5.55v-15.15h-17.5v15.15z" data-fill-palette-color="primary" fill="#152232" opacity="1"/><path d="M3.75 77v-34.3h16.6c3.567 0 6.283 0.957 8.15 2.87 1.867 1.92 2.8 4.53 2.8 7.83v0c0 3.3-0.973 5.933-2.92 7.9-1.953 1.967-4.68 2.95-8.18 2.95v0h-10.9v12.75zM9.3 59.5h10.7c1.767 0 3.16-0.543 4.18-1.63 1.013-1.08 1.52-2.57 1.52-4.47v0c0-1.9-0.483-3.367-1.45-4.4-0.967-1.033-2.383-1.55-4.25-1.55v0h-10.7zM29.95 77l13.35-34.3h7l13.3 34.3h-5.9l-3.15-8.35h-15.8l-3.1 8.35zM40.5 63.9h12.25l-3.75-10.05-2.25-6.4h-0.25l-0.45 1.3c-0.567 1.733-1.15 3.4-1.75 5v0zM80.4 77.6c-4.133 0-7.533-0.86-10.2-2.58-2.667-1.713-4-4.32-4-7.82v0l0.05-1.05h5.5c-0.067 0.467-0.1 0.8-0.1 1v0c0 1.867 0.783 3.29 2.35 4.27 1.567 0.987 3.683 1.48 6.35 1.48v0c2.933 0 5.15-0.433 6.65-1.3 1.5-0.867 2.25-2.117 2.25-3.75v0c0-1.167-0.407-2.127-1.22-2.88-0.82-0.747-1.853-1.347-3.1-1.8-1.253-0.447-2.947-0.953-5.08-1.52v0c-2.7-0.7-4.907-1.393-6.62-2.08-1.72-0.68-3.18-1.68-4.38-3-1.2-1.313-1.8-3.037-1.8-5.17v0c0-3.033 1.25-5.34 3.75-6.92 2.5-1.587 5.75-2.38 9.75-2.38v0c3.933 0 7.127 0.817 9.58 2.45 2.447 1.633 3.67 4.083 3.67 7.35v0 0.6h-5.4v-0.65c0-1.6-0.717-2.843-2.15-3.73-1.433-0.88-3.3-1.32-5.6-1.32v0c-2.467 0-4.423 0.367-5.87 1.1-1.453 0.733-2.18 1.8-2.18 3.2v0c0 1.033 0.4 1.89 1.2 2.57 0.8 0.687 1.8 1.247 3 1.68 1.2 0.433 2.833 0.917 4.9 1.45v0c2.8 0.733 5.06 1.433 6.78 2.1 1.713 0.667 3.187 1.657 4.42 2.97 1.233 1.32 1.85 3.047 1.85 5.18v0c0 3.667-1.283 6.34-3.85 8.02-2.567 1.687-6.067 2.53-10.5 2.53zM113.75 77.6c-4.133 0-7.533-0.86-10.2-2.58-2.667-1.713-4-4.32-4-7.82v0l0.05-1.05h5.5c-0.067 0.467-0.1 0.8-0.1 1v0c0 1.867 0.783 3.29 2.35 4.27 1.567 0.987 3.683 1.48 6.35 1.48v0c2.933 0 5.15-0.433 6.65-1.3 1.5-0.867 2.25-2.117 2.25-3.75v0c0-1.167-0.407-2.127-1.22-2.88-0.82-0.747-1.853-1.347-3.1-1.8-1.253-0.447-2.947-0.953-5.08-1.52v0c-2.7-0.7-4.907-1.393-6.62-2.08-1.72-0.68-3.18-1.68-4.38-3-1.2-1.313-1.8-3.037-1.8-5.17v0c0-3.033 1.25-5.34 3.75-6.92 2.5-1.587 5.75-2.38 9.75-2.38v0c3.933 0 7.127 0.817 9.58 2.45 2.447 1.633 3.67 4.083 3.67 7.35v0 0.6h-5.4v-0.65c0-1.6-0.717-2.843-2.15-3.73-1.433-0.88-3.3-1.32-5.6-1.32v0c-2.467 0-4.423 0.367-5.87 1.1-1.453 0.733-2.18 1.8-2.18 3.2v0c0 1.033 0.4 1.89 1.2 2.57 0.8 0.687 1.8 1.247 3 1.68 1.2 0.433 2.833 0.917 4.9 1.45v0c2.8 0.733 5.06 1.433 6.78 2.1 1.713 0.667 3.187 1.657 4.42 2.97 1.233 1.32 1.85 3.047 1.85 5.18v0c0 3.667-1.283 6.34-3.85 8.02-2.567 1.687-6.067 2.53-10.5 2.53z" data-fill-palette-color="primary" fill="#152232" opacity="1"/></g></svg></g></svg></g></svg></g></svg></g><g transform="matrix(1,0,0,1,0,0.4999999999999858)"><svg viewBox="0 0 200 200" height="200" width="200"><g><svg xmlns="http://www.w3.org/2000/svg" xmlns:xlink="http://www.w3.org/1999/xlink" version="1.1" x="0" y="0" viewBox="6.901000022888184 6.401000022888184 87.197998046875 87.197998046875" enable-background="new 0 0 100 100" xml:space="preserve" height="200" width="200" class="icon-icon-0" data-fill-palette-color="accent" id="icon-0"><path fill="#5ebc67" d="M50.5 6.401C26.421 6.401 6.901 25.921 6.901 50S26.421 93.599 50.5 93.599 94.099 74.079 94.099 50 74.579 6.401 50.5 6.401zM50.5 89.447c-21.786 0-39.447-17.661-39.447-39.447S28.714 10.553 50.5 10.553 89.947 28.214 89.947 50 72.286 89.447 50.5 89.447z" data-fill-palette-color="accent"/><path fill="#5ebc67" d="M56.728 81.142c-4.152 0-8.305 0-12.457 0-2.293 0-4.152-1.859-4.152-4.152 0-4.152 0-8.305 0-12.457 0-2.293-1.859-4.152-4.152-4.152-4.152 0-8.305 0-12.457 0-2.293 0-4.152-1.859-4.152-4.152 0-4.152 0-8.305 0-12.457 0-2.293 1.859-4.152 4.152-4.152 4.152 0 8.305 0 12.457 0 2.293 0 4.152-1.859 4.152-4.152 0-4.152 0-8.305 0-12.457 0-2.293 1.859-4.152 4.152-4.152 4.152 0 8.305 0 12.457 0 2.293 0 4.152 1.859 4.152 4.152 0 4.152 0 8.305 0 12.457 0 2.293 1.859 4.152 4.152 4.152 4.152 0 8.305 0 12.457 0 2.293 0 4.152 1.859 4.152 4.152 0 4.152 0 8.305 0 12.457 0 2.293-1.859 4.152-4.152 4.152-4.152 0-8.305 0-12.457 0-2.293 0-4.152 1.859-4.152 4.152 0 4.152 0 8.305 0 12.457C60.881 79.283 59.022 81.142 56.728 81.142z" data-fill-palette-color="accent"/></svg></g></svg></g></svg></g></svg>