<svg id="visual" viewBox="0 0 960 540" width="960" height="540" xmlns="http://www.w3.org/2000/svg" xmlns:xlink="http://www.w3.org/1999/xlink" version="1.1"><rect x="0" y="0" width="960" height="540" fill="#001220"></rect><path d="M0 319L22.8 328.3C45.7 337.7 91.3 356.3 137 355.5C182.7 354.7 228.3 334.3 274 332.3C319.7 330.3 365.3 346.7 411.2 351C457 355.3 503 347.7 548.8 343.3C594.7 339 640.3 338 686 347.2C731.7 356.3 777.3 375.7 823 382C868.7 388.3 914.3 381.7 937.2 378.3L960 375L960 541L937.2 541C914.3 541 868.7 541 823 541C777.3 541 731.7 541 686 541C640.3 541 594.7 541 548.8 541C503 541 457 541 411.2 541C365.3 541 319.7 541 274 541C228.3 541 182.7 541 137 541C91.3 541 45.7 541 22.8 541L0 541Z" fill="#24c733"></path><path d="M0 377L22.8 383.5C45.7 390 91.3 403 137 408.5C182.7 414 228.3 412 274 408.7C319.7 405.3 365.3 400.7 411.2 399.8C457 399 503 402 548.8 399.3C594.7 396.7 640.3 388.3 686 391.5C731.7 394.7 777.3 409.3 823 413.2C868.7 417 914.3 410 937.2 406.5L960 403L960 541L937.2 541C914.3 541 868.7 541 823 541C777.3 541 731.7 541 686 541C640.3 541 594.7 541 548.8 541C503 541 457 541 411.2 541C365.3 541 319.7 541 274 541C228.3 541 182.7 541 137 541C91.3 541 45.7 541 22.8 541L0 541Z" fill="#36d451"></path><path d="M0 397L22.8 405.5C45.7 414 91.3 431 137 435C182.7 439 228.3 430 274 429.2C319.7 428.3 365.3 435.7 411.2 432.5C457 429.3 503 415.7 548.8 413.8C594.7 412 640.3 422 686 423.2C731.7 424.3 777.3 416.7 823 415C868.7 413.3 914.3 417.7 937.2 419.8L960 422L960 541L937.2 541C914.3 541 868.7 541 823 541C777.3 541 731.7 541 686 541C640.3 541 594.7 541 548.8 541C503 541 457 541 411.2 541C365.3 541 319.7 541 274 541C228.3 541 182.7 541 137 541C91.3 541 45.7 541 22.8 541L0 541Z" fill="#47e16c"></path><path d="M0 434L22.8 438.5C45.7 443 91.3 452 137 460.8C182.7 469.7 228.3 478.3 274 479.2C319.7 480 365.3 473 411.2 466.2C457 459.3 503 452.7 548.8 448.5C594.7 444.3 640.3 442.7 686 449.7C731.7 456.7 777.3 472.3 823 471.3C868.7 470.3 914.3 452.7 937.2 443.8L960 435L960 541L937.2 541C914.3 541 868.7 541 823 541C777.3 541 731.7 541 686 541C640.3 541 594.7 541 548.8 541C503 541 457 541 411.2 541C365.3 541 319.7 541 274 541C228.3 541 182.7 541 137 541C91.3 541 45.7 541 22.8 541L0 541Z" fill="#58ee85"></path><path d="M0 504L22.8 499.3C45.7 494.7 91.3 485.3 137 480.8C182.7 476.3 228.3 476.7 274 482.7C319.7 488.7 365.3 500.3 411.2 503.7C457 507 503 502 548.8 500.3C594.7 498.7 640.3 500.3 686 499.5C731.7 498.7 777.3 495.3 823 496.8C868.7 498.3 914.3 504.7 937.2 507.8L960 511L960 541L937.2 541C914.3 541 868.7 541 823 541C777.3 541 731.7 541 686 541C640.3 541 594.7 541 548.8 541C503 541 457 541 411.2 541C365.3 541 319.7 541 274 541C228.3 541 182.7 541 137 541C91.3 541 45.7 541 22.8 541L0 541Z" fill="#69fa9e"></path></svg>