<svg id="visual" viewBox="0 0 960 540" width="960" height="540" xmlns="http://www.w3.org/2000/svg" xmlns:xlink="http://www.w3.org/1999/xlink" version="1.1"><rect x="0" y="0" width="960" height="540" fill="#FFFFFF"></rect><defs><linearGradient id="grad1_0" x1="43.8%" y1="0%" x2="100%" y2="100%"><stop offset="14.444444444444446%" stop-color="#ffffff" stop-opacity="1"></stop><stop offset="85.55555555555554%" stop-color="#ffffff" stop-opacity="1"></stop></linearGradient></defs><defs><linearGradient id="grad2_0" x1="0%" y1="0%" x2="56.3%" y2="100%"><stop offset="14.444444444444446%" stop-color="#ffffff" stop-opacity="1"></stop><stop offset="85.55555555555554%" stop-color="#ffffff" stop-opacity="1"></stop></linearGradient></defs><g transform="translate(960, 0)"><path d="M0 243C-30.3 233.7 -60.6 224.5 -87.6 211.6C-114.7 198.7 -138.5 182.2 -162.6 162.6C-186.7 143.1 -211.1 120.6 -224.5 93C-237.9 65.4 -240.5 32.7 -243 0L0 0Z" fill="#009428"></path></g><g transform="translate(0, 540)"><path d="M0 -243C32.1 -240.1 64.1 -237.3 93 -224.5C121.9 -211.7 147.5 -189 163.3 -163.3C179.2 -137.7 185.1 -109.2 196.8 -81.5C208.4 -53.8 225.7 -26.9 243 0L0 0Z" fill="#009428"></path></g></svg>