<svg xmlns="http://www.w3.org/2000/svg" version="1.1" xmlns:xlink="http://www.w3.org/1999/xlink" xmlns:svgjs="http://svgjs.com/svgjs" width="1920" height="1080" preserveAspectRatio="none" viewBox="0 0 1920 1080"><g mask="url(&quot;#SvgjsMask1059&quot;)" fill="none"><rect width="1920" height="1080" x="0" y="0" fill="#0e2a47"></rect><path d="M989.85 933.7L1070.89 933.7L1070.89 1025.2L989.85 1025.2z" stroke="#d3b714"></path><path d="M1370.19 729.81 a96.48 96.48 0 1 0 192.96 0 a96.48 96.48 0 1 0 -192.96 0z" stroke="#d3b714"></path><path d="M1502.03 122.04L1508.82 122.04L1508.82 153.65L1502.03 153.65z" stroke="#037b0b"></path><path d="M1611.48 127.78a90.98 90.98 0 1 0 181.56-12.14z" fill="#037b0b"></path><path d="M1664.43 665.14a42.69 42.69 0 1 0-85.34-2.84z" fill="#037b0b"></path><path d="M919.96 51.04L955.42 51.04L955.42 110.7L919.96 110.7z" fill="rgba(34, 196, 117, 1)"></path><path d="M2.92 811.87L78.65 811.87L78.65 887.6L2.92 887.6z" fill="#037b0b"></path><path d="M393.12 929.86L393.23 929.86L393.23 929.97L393.12 929.97z" fill="#d3b714"></path><path d="M571.53 574.33a73.46 73.46 0 1 0 140.95 41.45z" stroke="rgba(34, 196, 117, 1)"></path><path d="M1547.16 368.6L1618.3 368.6L1618.3 439.74L1547.16 439.74z" fill="#d3b714"></path><path d="M445.66 484.96 a69.06 69.06 0 1 0 138.12 0 a69.06 69.06 0 1 0 -138.12 0z" stroke="rgba(34, 196, 117, 1)"></path><path d="M27.86 866.72 a4.03 4.03 0 1 0 8.06 0 a4.03 4.03 0 1 0 -8.06 0z" fill="#037b0b"></path><path d="M47.3 627.95L141.92 627.95L141.92 722.57L47.3 722.57z" fill="#d3b714"></path><path d="M320.28 84.16a78.42 78.42 0 1 0 147.58 53.08z" stroke="rgba(34, 196, 117, 1)"></path><path d="M1908.3 329.7a17.87 17.87 0 1 0 20.78-29.08z" stroke="rgba(34, 196, 117, 1)"></path><path d="M109.24 434.61a93.66 93.66 0 1 0-173.68-70.17z" stroke="rgba(34, 196, 117, 1)"></path><path d="M291.37-29.68a82.34 82.34 0 1 0 146.88 74.46z" fill="rgba(34, 196, 117, 1)"></path><path d="M1451.07 239.11 a27.7 27.7 0 1 0 55.4 0 a27.7 27.7 0 1 0 -55.4 0z" stroke="#d3b714"></path><path d="M421.47 574.78L437.93 574.78L437.93 591.24L421.47 591.24z" stroke="#037b0b"></path><path d="M328.79 1030.01 a43.96 43.96 0 1 0 87.92 0 a43.96 43.96 0 1 0 -87.92 0z" fill="#037b0b"></path><path d="M1336.51 522.7a95.21 95.21 0 1 0-126.94 141.94z" fill="#037b0b"></path><path d="M1238.78 879.28 a90.27 90.27 0 1 0 180.54 0 a90.27 90.27 0 1 0 -180.54 0z" fill="rgba(34, 196, 117, 1)"></path><path d="M31.95 801.56L81.69 801.56L81.69 867.31L31.95 867.31z" fill="#037b0b"></path></g><defs><mask id="SvgjsMask1059"><rect width="1920" height="1080" fill="#ffffff"></rect></mask></defs></svg>