<svg xmlns="http://www.w3.org/2000/svg" version="1.1" xmlns:xlink="http://www.w3.org/1999/xlink" xmlns:svgjs="http://svgjs.com/svgjs" width="1440" height="560" preserveAspectRatio="none" viewBox="0 0 1440 560"><g mask="url(&quot;#SvgjsMask1005&quot;)" fill="none"><rect width="1440" height="560" x="0" y="0" fill="rgba(247, 247, 247, 1)"></rect><path d="M739.81 633.62C871.16 605.95 897.19 286.97 1129.69 264.45 1362.2 241.93 1415.56 121.2 1519.58 118.85" stroke="rgba(51,121,194,0.58)" stroke-width="2"></path><path d="M506.35 571.96C653.31 564.92 748.03 319.31 1033.62 310.57 1319.21 301.83 1421.69 133.8 1560.89 131.37" stroke="rgba(51,121,194,0.58)" stroke-width="2"></path><path d="M946.36 592.9C1086.45 550.37 1124.57 155.79 1330.31 150.7 1536.04 145.61 1611.62 293.88 1714.25 296.3" stroke="rgba(51,121,194,0.58)" stroke-width="2"></path><path d="M366.92 601.28C563.93 579.57 682.29 149.77 1016.98 147.44 1351.67 145.11 1501.09 281.14 1667.04 281.84" stroke="rgba(51,121,194,0.58)" stroke-width="2"></path><path d="M830.7 629.44C957.79 556.47 894.37 125.16 1124.67 122.27 1354.96 119.38 1553.83 358.46 1712.6 363.07" stroke="rgba(51,121,194,0.58)" stroke-width="2"></path></g><defs><mask id="SvgjsMask1005"><rect width="1440" height="560" fill="#ffffff"></rect></mask></defs></svg>