<svg id="visual" viewBox="0 0 900 600" width="900" height="600" xmlns="http://www.w3.org/2000/svg" xmlns:xlink="http://www.w3.org/1999/xlink" version="1.1"><path d="M0 88L18.8 97.7C37.7 107.3 75.3 126.7 112.8 122.8C150.3 119 187.7 92 225.2 81C262.7 70 300.3 75 337.8 85.3C375.3 95.7 412.7 111.3 450.2 119.2C487.7 127 525.3 127 562.8 123.8C600.3 120.7 637.7 114.3 675.2 115.3C712.7 116.3 750.3 124.7 787.8 126.3C825.3 128 862.7 123 881.3 120.5L900 118L900 0L881.3 0C862.7 0 825.3 0 787.8 0C750.3 0 712.7 0 675.2 0C637.7 0 600.3 0 562.8 0C525.3 0 487.7 0 450.2 0C412.7 0 375.3 0 337.8 0C300.3 0 262.7 0 225.2 0C187.7 0 150.3 0 112.8 0C75.3 0 37.7 0 18.8 0L0 0Z" fill="#009E60" stroke-linecap="round" stroke-linejoin="miter"></path></svg>