<svg id="visual" viewBox="0 0 900 600" width="900" height="600" xmlns="http://www.w3.org/2000/svg" xmlns:xlink="http://www.w3.org/1999/xlink" version="1.1"><path d="M0 451L21.5 445.3C43 439.7 86 428.3 128.8 435.8C171.7 443.3 214.3 469.7 257.2 480.7C300 491.7 343 487.3 385.8 470.5C428.7 453.7 471.3 424.3 514.2 426.7C557 429 600 463 642.8 477.8C685.7 492.7 728.3 488.3 771.2 477C814 465.7 857 447.3 878.5 438.2L900 429L900 601L878.5 601C857 601 814 601 771.2 601C728.3 601 685.7 601 642.8 601C600 601 557 601 514.2 601C471.3 601 428.7 601 385.8 601C343 601 300 601 257.2 601C214.3 601 171.7 601 128.8 601C86 601 43 601 21.5 601L0 601Z" fill="#0eb354" stroke-linecap="round" stroke-linejoin="miter"></path></svg>